<?xml version="1.0" encoding="UTF-8"?>
<svg id="Layer_2" data-name="Layer 2" xmlns="http://www.w3.org/2000/svg" viewBox="0 0 506.35 404.86">
  <defs>
    <style>
      .cls-1 {
        fill: #fff;
        stroke-width: 0px;
      }
    </style>
  </defs>
  <g id="Layer_1-2" data-name="Layer 1">
    <path class="cls-1" d="M0,0v404.86h506.35V0H0ZM96.76,24.06h312.85v44.17H96.76V24.06ZM289.75,139.09v-45.59h119.86v45.59h-119.86ZM29.77,24.06h44.65v44.17H29.77V24.06ZM74.43,380.8H29.77v-44.17h44.65v44.17ZM74.03,167.53v144.51H29.77V93.51h40.57l20.39,25.43,25.33,31.58,27.86,34.72,25.33,31.58,17.22,21.48V93.51h44.27v172.94h133.16l-.13-44.92h-72.79v-45.59h118.24l.4,136.09h-178.88s-40.57,0-40.57,0l-20.92-26.03-25.33-31.5-27.86-34.67-25.33-31.53-16.69-20.77ZM476.32,380.8H96.76v-44.17h379.56v44.17ZM476.58,312.03h-44.92V93.52h44.92v218.51ZM476.58,68.22h-44.92V24.06h44.92v44.17Z"/>
  </g>
</svg>