<?xml version="1.0" encoding="UTF-8"?>
<svg id="Layer_2" data-name="Layer 2" xmlns="http://www.w3.org/2000/svg" viewBox="0 0 758.58 875.93">
  <defs>
    <style>
      .cls-1 {
        fill: #2f7ed4;
      }

      .cls-1, .cls-2, .cls-3, .cls-4, .cls-5, .cls-6 {
        stroke-width: 0px;
      }

      .cls-2 {
        fill: #3725c3;
      }

      .cls-3 {
        fill: #3757f9;
      }

      .cls-4 {
        fill: #6f2fc1;
      }

      .cls-5 {
        fill: #b865eb;
      }

      .cls-6 {
        fill: #00baff;
      }
    </style>
  </defs>
  <g id="Layer_1-2" data-name="Layer 1">
    <g>
      <polygon class="cls-5" points="208.28 437.96 178.51 553.89 0 656.95 56.25 437.96 208.28 437.96"/>
      <polygon class="cls-2" points="293.79 586.06 217.77 717.73 0 656.95 178.51 553.89 293.79 586.06"/>
      <polygon class="cls-3" points="379.29 669.82 379.29 875.93 217.77 717.73 293.79 586.06 379.29 669.82"/>
      <polygon class="cls-6" points="540.81 717.73 379.29 875.93 379.29 669.82 464.79 586.06 540.81 717.73"/>
      <polygon class="cls-1" points="758.58 656.95 540.81 717.73 464.79 586.06 464.8 586.06 580.07 553.89 758.58 656.95"/>
      <polygon class="cls-4" points="758.58 656.95 580.07 553.89 550.3 437.96 702.33 437.96 758.58 656.95"/>
      <polygon class="cls-5" points="758.58 218.99 702.33 437.96 550.3 437.96 580.07 322.05 758.58 218.99"/>
      <polygon class="cls-2" points="580.07 322.05 580.07 322.04 464.8 289.87 464.79 289.87 540.81 158.2 758.58 218.99 580.07 322.05"/>
      <polygon class="cls-3" points="540.81 158.2 464.79 289.87 379.29 206.12 379.29 0 540.81 158.2"/>
      <polygon class="cls-6" points="379.29 0 379.29 206.12 293.79 289.87 217.77 158.2 379.29 0"/>
      <polygon class="cls-1" points="293.79 289.87 178.51 322.04 178.51 322.05 0 218.99 217.77 158.2 293.79 289.87"/>
      <polygon class="cls-4" points="208.28 437.96 56.25 437.96 0 218.99 178.51 322.05 208.28 437.96"/>
    </g>
  </g>
</svg>