<?xml version="1.0" encoding="UTF-8"?>
<svg id="Layer_2" data-name="Layer 2" xmlns="http://www.w3.org/2000/svg" viewBox="0 0 880.55 74.85">
  <defs>
    <style>
      .cls-1 {
        fill: #fff;
        stroke-width: 0px;
      }
    </style>
  </defs>
  <g id="Layer_1-2" data-name="Layer 1">
    <g>
      <polygon class="cls-1" points="43 51.51 10.39 .9 0 .9 0 73.9 11.3 73.9 11.3 23.12 43.91 73.9 54.3 73.9 54.3 .9 43 .9 43 51.51"/>
      <path class="cls-1" d="M162.9.9h-8.81l-15.79,25.32L122.51.9h-58.71v73h56.51l17.8-28.35,17.89,28.35h13.57l-24.59-38.2,17.92-27.86v3.65h19.7v62.4h11.2V11.5h19.7V.9h-50.6ZM75.1,63.3v-21.2h29.6v-10.6h-29.6V11.5h34.6V2.09l21.82,33.91-21.82,33.76v-6.46h-34.6Z"/>
      <path class="cls-1" d="M257.6,44.7h16.5v3.3c0,5.7-1.21,9.84-3.59,12.31-2.4,2.48-5.87,3.69-10.61,3.69-10.23,0-15-5.5-15-17.3v-18c0-6.52,1.27-11.24,3.78-14.01,2.49-2.75,6.13-4.09,11.12-4.09,4.41,0,7.92,1.13,10.43,3.35,2.47,2.19,3.68,5.12,3.68,8.95v2.4h11.3v-2.4c0-4.49-1.07-8.52-3.19-11.99-2.13-3.48-5.16-6.21-9.03-8.1-3.79-1.86-8.26-2.8-13.28-2.8-7.84,0-14.21,2.33-18.94,6.91-4.75,4.6-7.16,11.83-7.16,21.49v17.9c0,9.65,2.41,16.88,7.16,21.49,4.73,4.59,11.1,6.92,18.94,6.92s14.06-2.28,18.69-6.76c4.65-4.5,7.01-11.65,7.01-21.24v-12.3h-27.8v10.3Z"/>
      <polygon class="cls-1" points="293.5 73.9 339.4 73.9 339.4 63.3 304.8 63.3 304.8 42.1 334.4 42.1 334.4 31.5 304.8 31.5 304.8 11.5 339.4 11.5 339.4 .9 293.5 .9 293.5 73.9"/>
      <polygon class="cls-1" points="388.7 51.51 356.09 .9 345.69 .9 345.69 73.9 357 73.9 357 23.12 389.6 73.9 400 73.9 400 .9 388.7 .9 388.7 51.51"/>
      <g>
        <rect class="cls-1" x="422.43" y="2.17" width="7.6" height="71.85"/>
        <polygon class="cls-1" points="489.7 59.86 452.52 2.17 444.92 2.17 444.92 74.02 452.52 74.02 452.52 16.12 489.7 74.02 497.3 74.02 497.3 2.17 489.7 2.17 489.7 59.86"/>
        <polygon class="cls-1" points="503.85 9.04 524.37 9.04 524.37 74.02 531.86 74.02 531.86 9.04 552.38 9.04 552.38 2.17 503.85 2.17 503.85 9.04"/>
        <polygon class="cls-1" points="558.93 74.02 602.56 74.02 602.56 67.15 566.53 67.15 566.53 40.91 597.35 40.91 597.35 34.03 566.53 34.03 566.53 9.04 602.56 9.04 602.56 2.17 558.93 2.17 558.93 74.02"/>
        <path class="cls-1" d="M657.53,35.08c2.71-3.33,4.06-7.57,4.06-12.7,0-6.46-1.93-11.44-5.78-14.94-3.85-3.5-9.14-5.26-15.88-5.26h-26.66v71.85h7.6v-31.55h17.29l16.24,31.55h8.75l-16.97-32.28c4.86-1.11,8.64-3.33,11.35-6.66ZM620.88,35.91V9.04h18.43c4.72,0,8.35,1.13,10.88,3.38,2.53,2.26,3.8,5.6,3.8,10.05s-1.28,7.62-3.85,9.94-6.18,3.49-10.83,3.49h-18.43Z"/>
        <polygon class="cls-1" points="680.65 9.04 716.67 9.04 716.67 2.17 673.04 2.17 673.04 74.02 680.65 74.02 680.65 41.11 711.47 41.11 711.47 34.24 680.65 34.24 680.65 9.04"/>
        <path class="cls-1" d="M738.01,2.17l-26.14,71.85h8.02l6.04-17.28h30.51l6.04,17.28h8.02l-26.14-71.85h-6.35ZM728.12,50.28l13.02-37.48,13.12,37.48h-26.14Z"/>
        <path class="cls-1" d="M812.72,3.94c-3.71-1.8-8-2.71-12.86-2.71-7.71,0-13.85,2.2-18.43,6.61-4.58,4.41-6.87,11.37-6.87,20.88v18.64c0,9.51,2.29,16.47,6.87,20.88,4.58,4.41,10.72,6.61,18.43,6.61s13.33-1.98,17.7-5.93c4.37-3.96,6.56-9.3,6.56-16.03v-.42h-7.39v.42c0,4.65-1.49,8.31-4.48,10.98-2.99,2.67-7.08,4.01-12.29,4.01-11.87,0-17.81-6.7-17.81-20.1v-18.74c0-7.43,1.51-12.77,4.53-16.03s7.41-4.89,13.17-4.89c5.21,0,9.32,1.35,12.34,4.06,3.02,2.71,4.53,6.39,4.53,11.04v.31h7.6v-.31c0-4.37-1.01-8.23-3.02-11.56s-4.88-5.9-8.59-7.71Z"/>
        <polygon class="cls-1" points="880.55 9.04 880.55 2.17 836.92 2.17 836.92 74.02 880.55 74.02 880.55 67.15 844.53 67.15 844.53 40.91 875.35 40.91 875.35 34.03 844.53 34.03 844.53 9.04 880.55 9.04"/>
      </g>
    </g>
  </g>
</svg>